[b]POSTER.

[img]http://www.shotpix.com/images/16119856645423564230.png[/img]


   General.    
 


Complete name                : Son of Terror (2011).[Eng].[DvDRip].Xvid - {RedDragon}.avi
Format                       : MPEG-4
Format profile               : Base Media / Version 2
Codec ID                     : mp42
File size                    : 699 MiB
Duration                     : 1h 42mn
Overall bit rate             : 952 Kbps
Encoded date                 : UTC 2011-12-23 08:50:04
Tagged date                  : UTC 2011-12-23 09:02:36
Language                     : English
IMDb                         : http://www.imdb.com/title/tt0790813/
IMDb Rating                  : 3.4/10


    Video.    
 

ID                               : 1
Format                           : MPEG-4 Visual
Format profile                   : Simple@L1
Format settings, BVOP            : No
Format settings, QPel            : No
Format settings, GMC             : No warppoints
Format settings, Matrix          : Default (H.263)
Codec ID                         : 20
Duration                         : 1h 42mn
Bit rate mode                    : Variable
Bit rate                         : 789 Kbps
Maximum bit rate                 : 3 603 Mbps
Width                            : 640 pixels
Height                           : 336 pixels
Display aspect ratio             : 1.869
Frame rate mode                  : Variable
Frame rate                       : 25.405 fps
Minimum frame rate               : 8.559 fps
Maximum frame rate               : 29.970 fps
Color space                      : YUV
Chroma subsampling               : 4:2:0
Bit depth                        : 8 bits
Scan type                        : Progressive
Bits/(Pixel*Frame)               : 0.144
Stream size                      : 579 MiB (83%)
Writing library                  : Lavc52.94.3
Encoded date                     : UTC 2011-12-23 08:50:05
Tagged date                      : UTC 2011-12-23 09:02:36


   Audio.  
 

ID                               : 2
Format                           : AAC
Format/Info                      : Advanced Audio Codec
Format version                   : Version 4
Format profile                   : LC
Format settings, SBR             : No
Codec ID                         : 40
Duration                         : 1h 42mn
Bit rate mode                    : Variable
Bit rate                         : 160 Kbps
Maximum bit rate                 : 306 Kbps
Channel(s)                       : 2 channels
Channel positions                : Front: L R
Sampling rate                    : 48.0 KHz
Stream size                      : 117 MiB (17%)
Language                         : English
Encoded date                     : UTC 2011-12-23 08:50:05
Tagged date                      : UTC 2011-12-23 09:02:36


SCREEN SHOTS.


[IMG]http://imagestorage.org/images/06078209269682286961.jpg[/IMG]

[IMG]http://imagestorage.org/images/53794007202300078934.jpg[/IMG]

[IMG]http://imagestorage.org/images/89347152105096781477.jpg[/IMG]

[IMG]http://imagestorage.org/images/30683950877852716158.jpg[/IMG]

[IMG]http://imagestorage.org/images/37634779444187296180.jpg[/IMG]


TORRENT STATS.


[img]http://torrent-stats.info/838b/dc47daa6.png[/img][/b]